# This file uses centimeters as units for non-parametric coordinates.

mtllib Backdoor.mtl
g default
v -0.167236 0.056536 0.471308
v 0.167236 0.056536 0.471308
v -0.167236 2.312154 0.471308
v 0.167236 2.312154 0.471308
v -0.167236 2.312154 -0.421077
v 0.167236 2.312154 -0.421077
v -0.167236 0.056536 -0.421077
v 0.167236 0.056536 -0.421077
vt 0.167665 0.488499
vt 0.169357 0.488499
vt 0.169357 0.499907
vt 0.167665 0.499907
vt 0.171603 0.494343
vt 0.173295 0.494343
vt 0.173295 0.498856
vt 0.171603 0.498856
vt 0.169451 0.488499
vt 0.171142 0.488499
vt 0.171142 0.499907
vt 0.169451 0.499907
vt 0.171705 0.489758
vt 0.173397 0.489758
vt 0.173397 0.494271
vt 0.171705 0.494271
vt 0.174825 0.007567
vt 0.519331 0.007567
vt 0.519331 0.992433
vt 0.174825 0.992433
vt 0.177805 0.004187
vt 0.519304 0.004187
vt 0.519304 0.999193
vt 0.177805 0.999193
vn 0.000000 0.000000 1.000000
vn 0.000000 0.000000 1.000000
vn 0.000000 0.000000 1.000000
vn 0.000000 0.000000 1.000000
vn 0.000000 1.000000 0.000000
vn 0.000000 1.000000 0.000000
vn 0.000000 1.000000 0.000000
vn 0.000000 1.000000 0.000000
vn 0.000000 0.000000 -1.000000
vn 0.000000 0.000000 -1.000000
vn 0.000000 0.000000 -1.000000
vn 0.000000 0.000000 -1.000000
vn 0.000000 -1.000000 0.000000
vn 0.000000 -1.000000 0.000000
vn 0.000000 -1.000000 0.000000
vn 0.000000 -1.000000 0.000000
vn 1.000000 0.000000 0.000000
vn 1.000000 0.000000 0.000000
vn 1.000000 0.000000 0.000000
vn 1.000000 0.000000 0.000000
vn -1.000000 0.000000 0.000000
vn -1.000000 0.000000 0.000000
vn -1.000000 0.000000 0.000000
vn -1.000000 0.000000 0.000000
s off
g InnerCube:pCube2
usemtl initialShadingGroup
f 1/1/1 2/2/2 4/3/3 3/4/4
f 3/5/5 4/6/6 6/7/7 5/8/8
f 5/9/9 6/10/10 8/11/11 7/12/12
f 7/13/13 8/14/14 2/15/15 1/16/16
f 2/17/17 8/18/18 6/19/19 4/20/20
f 7/21/21 1/22/22 3/23/23 5/24/24
