# This file uses centimeters as units for non-parametric coordinates.

mtllib Divider.mtl
g default
v -0.323727 3.999588 -3.997577
v -0.320552 1.999591 -3.997641
v -0.268166 3.999475 2.376302
v -0.264991 1.999477 2.376240
v 0.271724 4.000332 2.371596
v 0.274898 2.000335 2.371534
v 0.216163 4.000445 -4.002283
v 0.219337 2.000448 -4.002347
v -0.273072 4.000469 1.813678
v 0.266818 4.001326 1.808972
v 0.269992 2.001329 1.808908
v -0.269897 2.000472 1.813614
v -0.294200 3.999528 -0.610250
v 0.245690 4.000385 -0.614956
v 0.248864 2.000388 -0.615020
v -0.291025 1.999531 -0.610314
v -0.298779 3.999537 -1.135560
v 0.241111 4.000394 -1.140266
v 0.244285 2.000397 -1.140329
v -0.295604 1.999540 -1.135623
v -0.265704 2.448117 2.376254
v 0.274186 2.448974 2.371547
v 0.269280 2.449968 1.808922
v 0.248152 2.449027 -0.615005
v 0.243573 2.449036 -1.140315
v 0.218625 2.449087 -4.002333
v -0.321265 2.448230 -3.997626
v -0.296316 2.448179 -1.135609
v -0.291737 2.448170 -0.610299
v -0.270610 2.449111 1.813629
v -0.267454 3.550835 2.376289
v 0.272436 3.551692 2.371583
v 0.267530 3.552687 1.808957
v 0.246402 3.551745 -0.614971
v 0.241823 3.551755 -1.140280
v 0.216875 3.551806 -4.002298
v -0.323015 3.550948 -3.997591
v -0.298067 3.550898 -1.135574
v -0.293488 3.550888 -0.610264
v -0.272360 3.551830 1.813664
v 0.273167 0.001332 1.808845
v -0.266723 0.000475 1.813552
v 0.278073 0.000337 2.371470
v -0.261817 -0.000520 2.376177
v 0.247460 0.000399 -1.140392
v -0.292430 -0.000458 -1.135686
v 0.252039 0.000390 -0.615083
v -0.287851 -0.000467 -0.610377
vt 0.375000 0.000000
vt 0.625000 0.000000
vt 0.375000 0.250000
vt 0.625000 0.250000
vt 0.375000 0.500000
vt 0.625000 0.500000
vt 0.375000 0.750000
vt 0.625000 0.750000
vt 0.375000 1.000000
vt 0.625000 1.000000
vt 0.875000 0.000000
vt 0.875000 0.250000
vt 0.125000 0.000000
vt 0.125000 0.250000
vt 0.375000 0.187500
vt 0.125000 0.187500
vt 0.375000 0.562500
vt 0.625000 0.562500
vt 0.875000 0.187500
vt 0.625000 0.187500
vt 0.375000 0.125000
vt 0.125000 0.125000
vt 0.375000 0.625000
vt 0.625000 0.625000
vt 0.875000 0.125000
vt 0.625000 0.125000
vt 0.375000 0.062500
vt 0.125000 0.062500
vt 0.375000 0.687500
vt 0.625000 0.687500
vt 0.875000 0.062500
vt 0.625000 0.062500
vt 0.541667 0.250000
vt 0.541667 0.500000
vt 0.541667 0.562500
vt 0.541667 0.625000
vt 0.541667 0.687500
vt 0.541667 0.750000
vt 0.541667 0.500000
vt 0.458333 0.125000
vt 0.541667 0.062500
vt 0.541667 0.125000
vt 0.541667 0.187500
vt 0.458333 0.250000
vt 0.458333 0.500000
vt 0.458333 0.562500
vt 0.458333 0.625000
vt 0.458333 0.687500
vt 0.458333 0.750000
vt 0.458333 0.500000
vt 0.458333 0.187500
vt 0.458333 0.062500
vt 0.625000 0.187500
vt 0.875000 0.187500
vt 0.875000 0.250000
vt 0.625000 0.250000
vt 0.625000 0.062500
vt 0.875000 0.062500
vt 0.875000 0.125000
vt 0.625000 0.125000
vn -0.999961 -0.001588 0.008717
vn -0.999961 -0.001588 0.008717
vn -0.999961 -0.001588 0.008717
vn -0.999961 -0.001588 0.008717
vn 0.008717 -0.000016 0.999962
vn 0.008717 -0.000017 0.999962
vn 0.008717 -0.000017 0.999962
vn 0.008717 -0.000016 0.999962
vn 0.999961 0.001588 -0.008717
vn 0.999961 0.001588 -0.008717
vn 0.999961 0.001588 -0.008717
vn 0.999961 0.001588 -0.008717
vn -0.008717 0.000018 -0.999962
vn -0.008717 0.000018 -0.999962
vn -0.008717 0.000018 -0.999962
vn -0.008717 0.000018 -0.999962
vn 0.001587 -0.999999 -0.000032
vn 0.001587 -0.999999 -0.000032
vn 0.001587 -0.999999 -0.000032
vn 0.001587 -0.999999 -0.000032
vn -0.001587 0.999999 0.000032
vn -0.001587 0.999999 0.000032
vn -0.001587 0.999999 0.000032
vn -0.001587 0.999999 0.000032
vn -0.001587 0.999999 0.000032
vn -0.001587 0.999999 0.000032
vn -0.001572 0.999997 0.001781
vn -0.001572 0.999997 0.001781
vn 0.999961 0.001588 -0.008717
vn 0.999961 0.001588 -0.008717
vn 0.999961 0.001588 -0.008717
vn 0.999961 0.001588 -0.008717
vn 0.001572 -0.999997 -0.001782
vn 0.001572 -0.999997 -0.001782
vn 0.001572 -0.999997 -0.001782
vn 0.001572 -0.999997 -0.001782
vn -0.999961 -0.001588 0.008717
vn -0.999961 -0.001588 0.008717
vn -0.999961 -0.001588 0.008717
vn -0.999961 -0.001588 0.008717
vn -0.001590 0.999999 -0.000302
vn -0.001590 0.999999 -0.000302
vn 0.999961 0.001588 -0.008717
vn 0.999961 0.001588 -0.008717
vn 0.001591 -0.999999 0.000374
vn 0.001591 -0.999999 0.000374
vn 0.001591 -0.999999 0.000374
vn 0.001591 -0.999999 0.000374
vn -0.999961 -0.001588 0.008717
vn -0.999961 -0.001588 0.008717
vn 0.001587 -0.999999 -0.000032
vn 0.001587 -0.999999 -0.000032
vn 0.001587 -0.999999 -0.000032
vn 0.001587 -0.999999 -0.000032
vn 0.008717 -0.000018 0.999962
vn 0.008717 -0.000018 0.999962
vn 0.008717 -0.000018 0.999962
vn 0.008717 -0.000018 0.999962
vn 0.999961 0.001588 -0.008717
vn 0.999961 0.001588 -0.008717
vn 0.999961 0.001588 -0.008717
vn 0.999961 0.001588 -0.008717
vn 0.999961 0.001588 -0.008717
vn 0.999961 0.001588 -0.008717
vn 0.999961 0.001588 -0.008717
vn 0.999961 0.001588 -0.008717
vn 0.999961 0.001588 -0.008717
vn 0.999961 0.001588 -0.008717
vn -0.008717 0.000018 -0.999962
vn -0.008717 0.000018 -0.999962
vn -0.008717 0.000018 -0.999962
vn -0.008717 0.000018 -0.999962
vn -0.999961 -0.001588 0.008717
vn -0.999961 -0.001588 0.008717
vn -0.999961 -0.001588 0.008717
vn -0.999961 -0.001588 0.008717
vn -0.999961 -0.001588 0.008717
vn -0.999961 -0.001588 0.008717
vn -0.999961 -0.001588 0.008717
vn -0.999961 -0.001588 0.008717
vn -0.999961 -0.001588 0.008717
vn -0.999961 -0.001588 0.008717
vn 0.001591 -0.999999 0.000375
vn 0.001591 -0.999999 0.000375
vn 0.001591 -0.999999 0.000375
vn 0.001591 -0.999999 0.000375
vn 0.008717 -0.000018 0.999962
vn 0.008717 -0.000018 0.999962
vn 0.008717 -0.000018 0.999962
vn 0.008717 -0.000018 0.999962
vn -0.001591 0.999999 -0.000375
vn -0.001591 0.999999 -0.000375
vn -0.001591 0.999999 -0.000375
vn -0.001591 0.999999 -0.000375
vn -0.008717 0.000018 -0.999962
vn -0.008717 0.000018 -0.999962
vn -0.008717 0.000018 -0.999962
vn -0.008717 0.000018 -0.999962
vn -0.008717 0.000018 -0.999962
vn -0.008717 0.000018 -0.999962
vn -0.008717 0.000018 -0.999962
vn -0.008717 0.000018 -0.999962
vn 0.001587 -0.999999 -0.000032
vn 0.001587 -0.999999 -0.000032
vn 0.001587 -0.999999 -0.000032
vn 0.001587 -0.999999 -0.000032
vn -0.001587 0.999999 0.000032
vn -0.001587 0.999999 0.000032
vn -0.001587 0.999999 0.000032
vn -0.001587 0.999999 0.000032
vn -0.008717 0.000018 -0.999962
vn -0.008717 0.000018 -0.999962
vn -0.008717 0.000018 -0.999962
vn -0.008717 0.000018 -0.999962
vn 0.999961 0.001588 -0.008717
vn 0.999961 0.001588 -0.008717
vn 0.008717 -0.000018 0.999962
vn 0.008717 -0.000018 0.999962
vn -0.999961 -0.001588 0.008717
vn -0.999961 -0.001588 0.008717
vn -0.008717 0.000018 -0.999962
vn -0.008717 0.000018 -0.999962
vn -0.008717 0.000018 -0.999962
vn -0.008717 0.000018 -0.999962
vn 0.999961 0.001588 -0.008717
vn 0.999961 0.001588 -0.008717
vn 0.008717 -0.000018 0.999962
vn 0.008717 -0.000018 0.999962
vn 0.008717 -0.000018 0.999962
vn 0.008717 -0.000018 0.999962
vn -0.999961 -0.001588 0.008717
vn -0.999961 -0.001588 0.008717
s 1
g initialShadingGroup pCube1
f 1/1/1 37/50/2 38/52/3 17/27/4
s 2
f 3/3/5 31/44/6 32/45/7 5/5/8
s 3
f 18/29/9 35/48/10 36/49/11 7/7/12
s off
f 7/7/13 36/49/14 37/50/15 1/9/16
f 2/2/17 8/11/18 19/31/19 20/32/20
s 4
f 7/13/21 1/1/22 17/27/23 18/28/24
f 10/16/25 9/15/26 3/3/27 5/14/28
s 3
f 5/5/29 32/45/30 33/46/31 10/17/32
s off
f 42/53/33 41/54/34 43/55/35 44/56/36
s 1
f 9/15/37 40/51/38 31/44/39 3/3/40
s 4
f 14/22/41 13/21/42 9/15/26 10/16/25
s 3
f 10/17/32 33/46/31 34/47/43 14/23/44
s off
f 16/26/45 15/25/46 11/19/47 12/20/48
s 1
f 13/21/49 39/40/50 40/51/38 9/15/37
s 4
f 18/28/24 17/27/23 13/21/42 14/22/41
s 3
f 14/23/44 34/47/43 35/48/10 18/29/9
s off
f 46/57/51 45/58/52 47/59/53 48/60/54
s 1
f 17/27/4 38/52/3 39/40/50 13/21/49
s 2
f 21/33/55 4/4/56 6/6/57 22/34/58
s 3
f 23/35/59 22/34/60 6/6/61 11/18/62
f 24/36/63 23/35/59 11/18/62 15/24/64
f 25/37/65 24/36/63 15/24/64 19/30/66
f 26/38/67 25/37/65 19/30/66 8/8/68
s off
f 27/39/69 26/38/70 8/8/71 2/10/72
s 1
f 28/41/73 27/39/74 2/2/75 20/32/76
f 29/42/77 28/41/73 20/32/76 16/26/78
f 30/43/79 29/42/77 16/26/78 12/20/80
f 21/33/81 30/43/79 12/20/80 4/4/82
s 2
f 31/44/6 21/33/55 22/34/58 32/45/7
s 3
f 33/46/31 32/45/30 22/34/60 23/35/59
f 35/48/10 34/47/43 24/36/63 25/37/65
s 1
f 39/40/50 38/52/3 28/41/73 29/42/77
f 31/44/39 40/51/38 30/43/79 21/33/81
s off
f 34/47/83 33/46/84 40/51/85 39/40/86
f 39/40/87 29/42/88 24/36/89 34/47/90
f 23/35/91 24/36/92 29/42/93 30/43/94
f 30/43/95 40/51/96 33/46/97 23/35/98
f 28/41/99 38/52/100 35/48/101 25/37/102
f 36/49/103 35/48/104 38/52/105 37/50/106
f 25/37/107 26/38/108 27/39/109 28/41/110
f 12/20/111 11/19/112 41/54/113 42/53/114
s 3
f 11/19/62 6/12/61 43/55/115 41/54/116
s 2
f 6/12/57 4/4/56 44/56/117 43/55/118
s 1
f 4/4/82 12/20/80 42/53/119 44/56/120
s off
f 20/32/121 19/31/122 45/58/123 46/57/124
s 3
f 19/31/66 15/25/64 47/59/125 45/58/126
s off
f 15/25/127 16/26/128 48/60/129 47/59/130
s 1
f 16/26/78 20/32/76 46/57/131 48/60/132
