# This file uses centimeters as units for non-parametric coordinates.

mtllib Door.mtl
g default
v -0.278324 0.045260 1.000000
v -0.021383 0.045260 1.000000
v -0.278324 2.675601 1.000000
v -0.021383 2.675601 1.000000
v -0.278324 2.675601 -1.202014
v -0.021383 2.675601 -1.202014
v -0.278324 0.045260 -1.202014
v -0.021383 0.045260 -1.202014
vt 0.170655 0.447598
vt 0.178360 0.447598
vt 0.178360 0.526479
vt 0.170655 0.526479
vt 0.171708 0.451607
vt 0.177139 0.451607
vt 0.177139 0.493877
vt 0.171708 0.493877
vt 0.161903 0.447598
vt 0.169609 0.447598
vt 0.169609 0.526479
vt 0.161903 0.526479
vt 0.165653 0.451607
vt 0.171084 0.451607
vt 0.171084 0.493877
vt 0.165653 0.493877
vt 0.165696 0.042935
vt 0.841708 0.042935
vt 0.841708 0.973296
vt 0.165696 0.973296
vt 0.169591 0.055212
vt 0.845602 0.055212
vt 0.845602 0.971503
vt 0.169591 0.971503
vn 0.000000 0.000000 1.000000
vn 0.000000 0.000000 1.000000
vn 0.000000 0.000000 1.000000
vn 0.000000 0.000000 1.000000
vn 0.000000 1.000000 0.000000
vn 0.000000 1.000000 0.000000
vn 0.000000 1.000000 0.000000
vn 0.000000 1.000000 0.000000
vn 0.000000 0.000000 -1.000000
vn 0.000000 0.000000 -1.000000
vn 0.000000 0.000000 -1.000000
vn 0.000000 0.000000 -1.000000
vn 0.000000 -1.000000 0.000000
vn 0.000000 -1.000000 0.000000
vn 0.000000 -1.000000 0.000000
vn 0.000000 -1.000000 0.000000
vn 1.000000 0.000000 0.000000
vn 1.000000 0.000000 0.000000
vn 1.000000 0.000000 0.000000
vn 1.000000 0.000000 0.000000
vn -1.000000 0.000000 0.000000
vn -1.000000 0.000000 0.000000
vn -1.000000 0.000000 0.000000
vn -1.000000 0.000000 0.000000
s 1
g pCube1
usemtl initialShadingGroup
f 1/1/1 2/2/2 3/4/3
f 3/4/3 2/2/2 4/3/4
s 2
f 3/5/5 4/6/6 5/8/7
f 5/8/7 4/6/6 6/7/8
s 3
f 5/9/9 6/10/10 7/12/11
f 7/12/11 6/10/10 8/11/12
s 4
f 7/13/13 8/14/14 1/16/15
f 1/16/15 8/14/14 2/15/16
s 5
f 2/17/17 8/18/18 4/20/19
f 4/20/19 8/18/18 6/19/20
s 6
f 7/21/21 1/22/22 5/24/23
f 5/24/23 1/22/22 3/23/24
