# This file uses centimeters as units for non-parametric coordinates.

mtllib Scanner.mtl
g default
v -1.000000 0.000000 0.269955
v 1.000000 0.000000 0.269955
v -1.000000 6.374122 0.269955
v 1.000000 6.374122 0.269955
v -1.000000 6.374122 -0.269955
v 1.000000 6.374122 -0.269955
v -1.000000 0.000000 -0.269955
v 1.000000 0.000000 -0.269955
v -1.000000 5.191316 0.269955
v -1.000000 5.191316 -0.269955
v 1.000000 5.191316 -0.269955
v 1.000000 5.191316 0.269955
v -1.000000 3.387456 0.269955
v -1.000000 3.387456 -0.269955
v 1.000000 3.387456 -0.269955
v 1.000000 3.387456 0.269955
v -1.000000 2.862126 0.269955
v -1.000000 2.862126 -0.269955
v 1.000000 2.862126 -0.269955
v 1.000000 2.862126 0.269955
v 0.551360 6.374122 0.269955
v 0.551360 6.374122 -0.269955
v 0.551360 5.191316 -0.269955
v 0.551360 3.387456 -0.269955
v 0.551360 2.862126 -0.269955
v 0.551360 0.000000 -0.269955
v 0.551360 0.000000 0.269955
v 0.551360 2.862126 0.269955
v 0.551360 3.387456 0.269955
v 0.551360 5.191316 0.269955
v -0.551360 6.374122 0.269955
v -0.551360 6.374122 -0.269955
v -0.551360 5.191316 -0.269955
v -0.551360 3.387456 -0.269955
v -0.551360 2.862126 -0.269955
v -0.551360 0.000000 -0.269955
v -0.551360 0.000000 0.269955
v -0.551360 2.862126 0.269955
v -0.551360 3.387456 0.269955
v -0.551360 5.191316 0.269955
vt 0.375000 0.000000
vt 0.625000 0.000000
vt 0.375000 0.250000
vt 0.625000 0.250000
vt 0.375000 0.500000
vt 0.625000 0.500000
vt 0.375000 0.750000
vt 0.625000 0.750000
vt 0.375000 1.000000
vt 0.625000 1.000000
vt 0.875000 0.000000
vt 0.875000 0.250000
vt 0.125000 0.000000
vt 0.125000 0.250000
vt 0.375000 0.187500
vt 0.125000 0.187500
vt 0.375000 0.562500
vt 0.625000 0.562500
vt 0.875000 0.187500
vt 0.625000 0.187500
vt 0.375000 0.125000
vt 0.125000 0.125000
vt 0.375000 0.625000
vt 0.625000 0.625000
vt 0.875000 0.125000
vt 0.625000 0.125000
vt 0.375000 0.062500
vt 0.125000 0.062500
vt 0.375000 0.687500
vt 0.625000 0.687500
vt 0.875000 0.062500
vt 0.625000 0.062500
vt 0.541667 0.250000
vt 0.541667 0.500000
vt 0.541667 0.562500
vt 0.541667 0.625000
vt 0.541667 0.687500
vt 0.541667 0.750000
vt 0.541667 0.500000
vt 0.458333 0.125000
vt 0.541667 0.062500
vt 0.541667 0.125000
vt 0.541667 0.187500
vt 0.458333 0.250000
vt 0.458333 0.500000
vt 0.458333 0.562500
vt 0.458333 0.625000
vt 0.458333 0.687500
vt 0.458333 0.750000
vt 0.458333 0.500000
vt 0.458333 0.187500
vt 0.458333 0.062500
vn 0.000000 0.000000 1.000000
vn 0.000000 0.000000 1.000000
vn 0.000000 0.000000 1.000000
vn 0.000000 0.000000 1.000000
vn 0.000000 1.000000 0.000000
vn 0.000000 1.000000 0.000000
vn 0.000000 1.000000 0.000000
vn 0.000000 1.000000 0.000000
vn 0.000000 0.000000 -1.000000
vn 0.000000 0.000000 -1.000000
vn 0.000000 0.000000 -1.000000
vn 0.000000 0.000000 -1.000000
vn 0.000000 -1.000000 0.000000
vn 0.000000 -1.000000 0.000000
vn 0.000000 -1.000000 0.000000
vn 0.000000 -1.000000 0.000000
vn 1.000000 0.000000 0.000000
vn 1.000000 0.000000 0.000000
vn 1.000000 0.000000 0.000000
vn 1.000000 0.000000 0.000000
vn -1.000000 0.000000 0.000000
vn -1.000000 0.000000 0.000000
vn -1.000000 0.000000 0.000000
vn -1.000000 0.000000 0.000000
vn -1.000000 0.000000 0.000000
vn -1.000000 0.000000 0.000000
vn -1.000000 0.000000 0.000000
vn -1.000000 0.000000 0.000000
vn 0.000000 0.000000 -1.000000
vn 0.000000 0.000000 -1.000000
vn 0.000000 0.000000 -1.000000
vn 0.000000 0.000000 -1.000000
vn 1.000000 0.000000 0.000000
vn 1.000000 0.000000 0.000000
vn 1.000000 0.000000 0.000000
vn 1.000000 0.000000 0.000000
vn 0.000000 0.000000 1.000000
vn 0.000000 0.000000 1.000000
vn 0.000000 0.000000 1.000000
vn 0.000000 0.000000 1.000000
vn -1.000000 0.000000 0.000000
vn -1.000000 0.000000 0.000000
vn 0.000000 0.000000 -1.000000
vn 0.000000 0.000000 -1.000000
vn 1.000000 0.000000 0.000000
vn 1.000000 0.000000 0.000000
vn 0.000000 0.000000 1.000000
vn 0.000000 0.000000 1.000000
vn 0.000000 1.000000 0.000000
vn 0.000000 1.000000 0.000000
vn 0.000000 1.000000 0.000000
vn 0.000000 1.000000 0.000000
vn 0.000000 0.000000 -1.000000
vn 0.000000 0.000000 -1.000000
vn 0.000000 0.000000 -1.000000
vn 0.000000 0.000000 -1.000000
vn 0.000000 0.000000 -1.000000
vn 0.000000 0.000000 -1.000000
vn 0.000000 0.000000 -1.000000
vn 0.000000 0.000000 -1.000000
vn 0.000000 0.000000 -1.000000
vn 0.000000 0.000000 -1.000000
vn 0.000000 -1.000000 0.000000
vn 0.000000 -1.000000 0.000000
vn 0.000000 -1.000000 0.000000
vn 0.000000 -1.000000 0.000000
vn 0.000000 0.000000 1.000000
vn 0.000000 0.000000 1.000000
vn 0.000000 0.000000 1.000000
vn 0.000000 0.000000 1.000000
vn 0.000000 0.000000 1.000000
vn 0.000000 0.000000 1.000000
vn 0.000000 0.000000 1.000000
vn 0.000000 0.000000 1.000000
vn 0.000000 0.000000 1.000000
vn 0.000000 0.000000 1.000000
vn 1.000000 0.000000 0.000000
vn 1.000000 0.000000 0.000000
vn 1.000000 0.000000 0.000000
vn 1.000000 0.000000 0.000000
vn 0.000000 1.000000 0.000000
vn 0.000000 1.000000 0.000000
vn 0.000000 1.000000 0.000000
vn 0.000000 1.000000 0.000000
vn -1.000000 0.000000 0.000000
vn -1.000000 0.000000 0.000000
vn -1.000000 0.000000 0.000000
vn -1.000000 0.000000 0.000000
vn 0.000000 -1.000000 0.000000
vn 0.000000 -1.000000 0.000000
vn 0.000000 -1.000000 0.000000
vn 0.000000 -1.000000 0.000000
vn 0.000000 -1.000000 0.000000
vn 0.000000 -1.000000 0.000000
vn 0.000000 -1.000000 0.000000
vn 0.000000 -1.000000 0.000000
vn 1.000000 0.000000 0.000000
vn 1.000000 0.000000 0.000000
vn 1.000000 0.000000 0.000000
vn 1.000000 0.000000 0.000000
vn -1.000000 0.000000 0.000000
vn -1.000000 0.000000 0.000000
vn -1.000000 0.000000 0.000000
vn -1.000000 0.000000 0.000000
s 1
g initialShadingGroup pCube1
f 1/1/1 37/50/2 38/52/3 17/27/4
s 2
f 3/3/5 31/44/6 32/45/7 5/5/8
s 3
f 18/29/9 35/48/10 36/49/11 7/7/12
s off
f 7/7/13 36/49/14 37/50/15 1/9/16
s 4
f 2/2/17 8/11/18 19/31/19 20/32/20
s 5
f 7/13/21 1/1/22 17/27/23 18/28/24
f 10/16/25 9/15/26 3/3/27 5/14/28
s 3
f 5/5/29 32/45/30 33/46/31 10/17/32
s 4
f 12/20/33 11/19/34 6/12/35 4/4/36
s 1
f 9/15/37 40/51/38 31/44/39 3/3/40
s 5
f 14/22/41 13/21/42 9/15/26 10/16/25
s 3
f 10/17/32 33/46/31 34/47/43 14/23/44
s 4
f 16/26/45 15/25/46 11/19/34 12/20/33
s 1
f 13/21/47 39/40/48 40/51/38 9/15/37
s 5
f 18/28/24 17/27/23 13/21/42 14/22/41
s 3
f 14/23/44 34/47/43 35/48/10 18/29/9
s 4
f 20/32/20 19/31/19 15/25/46 16/26/45
s 1
f 17/27/4 38/52/3 39/40/48 13/21/47
s 2
f 21/33/49 4/4/50 6/6/51 22/34/52
s 3
f 23/35/53 22/34/54 6/6/55 11/18/56
f 24/36/57 23/35/53 11/18/56 15/24/58
f 25/37/59 24/36/57 15/24/58 19/30/60
f 26/38/61 25/37/59 19/30/60 8/8/62
s off
f 27/39/63 26/38/64 8/8/65 2/10/66
s 1
f 28/41/67 27/39/68 2/2/69 20/32/70
f 29/42/71 28/41/67 20/32/70 16/26/72
f 30/43/73 29/42/71 16/26/72 12/20/74
f 21/33/75 30/43/73 12/20/74 4/4/76
s 2
f 31/44/6 21/33/49 22/34/52 32/45/7
s 3
f 33/46/31 32/45/30 22/34/54 23/35/53
f 35/48/10 34/47/43 24/36/57 25/37/59
s 1
f 39/40/48 38/52/3 28/41/67 29/42/71
f 31/44/39 40/51/38 30/43/73 21/33/75
s off
f 34/47/77 33/46/78 40/51/79 39/40/80
f 39/40/81 29/42/82 24/36/83 34/47/84
f 23/35/85 24/36/86 29/42/87 30/43/88
f 30/43/89 40/51/90 33/46/91 23/35/92
f 28/41/93 38/52/94 35/48/95 25/37/96
f 36/49/97 35/48/98 38/52/99 37/50/100
f 25/37/101 26/38/102 27/39/103 28/41/104
