# This file uses centimeters as units for non-parametric coordinates.

mtllib Sink.mtl
g default
v -6.445850 0.000000 5.965628
v -6.122807 0.000000 5.965628
v -6.445850 0.000000 5.685999
v -6.122807 0.000000 5.685999
v -6.445850 1.349318 5.685999
v -6.445850 1.349318 5.965628
v -6.122807 1.349318 5.965628
v -6.122807 1.349318 5.685999
v -6.154262 1.283560 5.790231
v -6.174099 1.283560 5.751298
v -6.204996 1.283560 5.720401
v -6.243930 1.283560 5.700563
v -6.287088 1.283560 5.693728
v -6.330245 1.283560 5.700563
v -6.369179 1.283560 5.720401
v -6.400076 1.283560 5.751299
v -6.419914 1.283560 5.790231
v -6.426749 1.283560 5.833390
v -6.419914 1.283560 5.876548
v -6.400076 1.283560 5.915480
v -6.369179 1.283560 5.946378
v -6.330245 1.283560 5.966216
v -6.287088 1.283560 5.973051
v -6.243930 1.283560 5.966216
v -6.204996 1.283560 5.946378
v -6.174099 1.283560 5.915480
v -6.154262 1.283560 5.876548
v -6.147426 1.283560 5.833390
v -5.939344 1.447742 5.720401
v -5.991279 1.447742 5.618472
v -6.072170 1.447742 5.537581
v -6.174099 1.447742 5.485646
v -6.287088 1.447742 5.467750
v -6.400076 1.447742 5.485646
v -6.502005 1.447742 5.537581
v -6.582896 1.447742 5.618472
v -6.634831 1.447742 5.720401
v -6.652726 1.447742 5.833390
v -6.634831 1.447742 5.946378
v -6.582896 1.447742 6.048307
v -6.502005 1.447742 6.129198
v -6.400076 1.447742 6.181133
v -6.287088 1.447742 6.199029
v -6.174099 1.447742 6.181133
v -6.072170 1.447742 6.129198
v -5.991280 1.447742 6.048307
v -5.939345 1.447742 5.946378
v -5.921449 1.447742 5.833390
v -5.878290 1.573733 5.700563
v -5.939344 1.573733 5.580739
v -6.034437 1.573733 5.485646
v -6.154262 1.573733 5.424593
v -6.287088 1.573733 5.403555
v -6.419914 1.573733 5.424593
v -6.539738 1.573733 5.485646
v -6.634831 1.573733 5.580739
v -6.695885 1.573733 5.700563
v -6.716922 1.573733 5.833390
v -6.695885 1.573733 5.966216
v -6.634831 1.573733 6.086040
v -6.539738 1.573733 6.181133
v -6.419914 1.573733 6.242186
v -6.287088 1.573733 6.263224
v -6.154262 1.573733 6.242186
v -6.034437 1.573733 6.181133
v -5.939345 1.573733 6.086040
v -5.878291 1.573733 5.966216
v -5.857253 1.573733 5.833390
v -5.862545 1.642693 5.695447
v -5.925950 1.642693 5.571008
v -6.024706 1.642693 5.472252
v -6.149145 1.642693 5.408847
v -6.287088 1.642693 5.386999
v -6.425030 1.642693 5.408847
v -6.549469 1.642693 5.472252
v -6.648225 1.642693 5.571008
v -6.711630 1.642693 5.695447
v -6.733478 1.642693 5.833390
v -6.711630 1.642693 5.971332
v -6.648225 1.642693 6.095771
v -6.549469 1.642693 6.194527
v -6.425030 1.642693 6.257932
v -6.287088 1.642693 6.279780
v -6.149145 1.642693 6.257932
v -6.024706 1.642693 6.194527
v -5.925950 1.642693 6.095771
v -5.862545 1.642693 5.971332
v -5.840698 1.642693 5.833390
v -6.287088 1.260233 5.833390
v -6.287088 1.261440 5.833390
v -6.733932 1.593656 5.841243
v -6.679252 1.593656 5.841243
v -6.733932 1.776980 5.841243
v -6.679252 1.776980 5.841243
v -6.733932 1.776980 5.754915
v -6.679252 1.776980 5.754915
v -6.733932 1.593656 5.754915
v -6.679252 1.593656 5.754915
v -6.679252 1.730609 5.841243
v -6.733932 1.730609 5.841243
v -6.733932 1.730609 5.754915
v -6.679252 1.730609 5.754915
v -6.482076 1.730609 5.754915
v -6.482076 1.730609 5.841243
v -6.482076 1.776980 5.754915
v -6.482076 1.776980 5.841243
vt 0.147371 0.771665
vt 0.147371 0.623744
vt 0.275412 0.623744
vt 0.275412 0.771665
vt 0.001992 0.001905
vt 0.130033 0.001905
vt 0.130033 0.619753
vt 0.001992 0.619753
vt 0.136665 0.001905
vt 0.284585 0.001905
vt 0.284585 0.619753
vt 0.136665 0.619753
vt 0.292581 0.001905
vt 0.420622 0.001905
vt 0.420622 0.619753
vt 0.292581 0.619753
vt 0.427059 0.001905
vt 0.574979 0.001905
vt 0.574979 0.619753
vt 0.427059 0.619753
vt 0.141236 0.771665
vt 0.013194 0.771665
vt 0.013194 0.623744
vt 0.141236 0.623744
vt 0.882320 0.544533
vt 0.868173 0.530385
vt 0.928993 0.446673
vt 0.966033 0.483713
vt 0.830584 0.582123
vt 0.850345 0.521302
vt 0.882320 0.422892
vt 0.891404 0.562361
vt 0.989814 0.530385
vt 0.830584 0.518172
vt 0.830584 0.414698
vt 0.894534 0.582123
vt 0.998008 0.582123
vt 0.810822 0.521302
vt 0.778846 0.422892
vt 0.891404 0.601885
vt 0.989814 0.633860
vt 0.792994 0.530386
vt 0.732174 0.446673
vt 0.882320 0.619712
vt 0.966033 0.680532
vt 0.778846 0.544534
vt 0.695134 0.483713
vt 0.868173 0.633860
vt 0.928993 0.717572
vt 0.769763 0.562361
vt 0.671353 0.530386
vt 0.850345 0.642943
vt 0.882320 0.741353
vt 0.766633 0.582123
vt 0.663159 0.582123
vt 0.830584 0.646073
vt 0.830584 0.749548
vt 0.769763 0.601885
vt 0.671353 0.633860
vt 0.810822 0.642943
vt 0.778846 0.741353
vt 0.778846 0.619712
vt 0.695134 0.680532
vt 0.792994 0.633860
vt 0.732174 0.717572
vt 0.567756 0.737371
vt 0.567756 0.690698
vt 0.625447 0.673420
vt 0.625447 0.728287
vt 0.567756 0.653658
vt 0.625447 0.629877
vt 0.657024 0.668964
vt 0.657024 0.725945
vt 0.567756 0.789108
vt 0.625447 0.789108
vt 0.657024 0.623744
vt 0.657024 0.789108
vt 0.567756 0.840845
vt 0.625447 0.849929
vt 0.657024 0.852271
vt 0.567756 0.887518
vt 0.625447 0.904796
vt 0.657024 0.909252
vt 0.567756 0.924558
vt 0.625447 0.948339
vt 0.657024 0.954471
vt 0.561621 0.645478
vt 0.561621 0.692151
vt 0.503930 0.683068
vt 0.503930 0.628201
vt 0.561621 0.743888
vt 0.503930 0.743888
vt 0.472353 0.680725
vt 0.472353 0.623744
vt 0.561621 0.795625
vt 0.503930 0.804709
vt 0.472353 0.743888
vt 0.561621 0.842298
vt 0.503930 0.859576
vt 0.472353 0.807052
vt 0.561621 0.879338
vt 0.503930 0.903119
vt 0.472353 0.864032
vt 0.472353 0.909252
vt 0.376951 0.887518
vt 0.376951 0.840845
vt 0.434641 0.849929
vt 0.434641 0.904796
vt 0.376951 0.789108
vt 0.434641 0.789108
vt 0.466218 0.852271
vt 0.466218 0.909252
vt 0.376951 0.737371
vt 0.434641 0.728287
vt 0.466218 0.789108
vt 0.376951 0.690698
vt 0.434641 0.673420
vt 0.466218 0.725945
vt 0.376951 0.653658
vt 0.434641 0.629877
vt 0.466218 0.668964
vt 0.466218 0.623744
vt 0.281548 0.842298
vt 0.281548 0.795625
vt 0.339238 0.804708
vt 0.339238 0.859576
vt 0.281548 0.743888
vt 0.339238 0.743888
vt 0.370815 0.807052
vt 0.370815 0.864032
vt 0.281548 0.692151
vt 0.339238 0.683068
vt 0.370815 0.743888
vt 0.281548 0.645478
vt 0.339238 0.628200
vt 0.370815 0.680725
vt 0.370815 0.623744
vt 0.952739 0.410660
vt 0.907519 0.455880
vt 0.787376 0.290516
vt 0.850539 0.484913
vt 0.981772 0.353679
vt 0.787376 0.494917
vt 0.991776 0.290516
vt 0.724212 0.484913
vt 0.981772 0.227353
vt 0.667232 0.455880
vt 0.952739 0.170372
vt 0.622012 0.410660
vt 0.907519 0.125153
vt 0.592979 0.353679
vt 0.850539 0.096120
vt 0.582975 0.290516
vt 0.787376 0.086116
vt 0.592979 0.227353
vt 0.724212 0.096120
vt 0.622012 0.170372
vt 0.667232 0.125153
vt 0.001992 0.890980
vt 0.001992 0.865942
vt 0.064702 0.865942
vt 0.064702 0.890980
vt 0.085935 0.865942
vt 0.085935 0.890980
vt 0.064702 0.775656
vt 0.085935 0.775656
vt 0.093788 0.890980
vt 0.093788 0.865942
vt 0.133316 0.865942
vt 0.133316 0.890980
vt 0.093788 0.775656
vt 0.133316 0.775656
vt 0.161795 0.890980
vt 0.161795 0.865942
vt 0.224505 0.865942
vt 0.224505 0.890980
vt 0.140562 0.890980
vt 0.140562 0.865942
vt 0.140562 0.775656
vt 0.161795 0.775656
vt 0.372488 0.913243
vt 0.397526 0.913243
vt 0.397526 0.952772
vt 0.372488 0.952772
vt 0.325713 0.868023
vt 0.365242 0.868023
vt 0.365242 0.930733
vt 0.325713 0.930733
vt 0.278938 0.868023
vt 0.318467 0.868023
vt 0.318467 0.930733
vt 0.278938 0.930733
vt 0.318467 0.951966
vt 0.278938 0.951966
vt 0.403671 0.952772
vt 0.403671 0.913243
vt 0.424904 0.913243
vt 0.424904 0.952772
vt 0.271692 0.865943
vt 0.232163 0.865943
vt 0.232163 0.775656
vt 0.271692 0.775656
vn 0.000000 -1.000000 0.000000
vn 0.000000 -1.000000 0.000000
vn 0.000000 -1.000000 0.000000
vn 0.000000 -1.000000 0.000000
vn -1.000000 0.000000 0.000000
vn -1.000000 0.000000 0.000000
vn -1.000000 0.000000 0.000000
vn -1.000000 0.000000 0.000000
vn 0.000000 0.000000 1.000000
vn 0.000000 0.000000 1.000000
vn 0.000000 0.000000 1.000000
vn 0.000000 0.000000 1.000000
vn 1.000000 0.000000 0.000000
vn 1.000000 0.000000 0.000000
vn 1.000000 0.000000 0.000000
vn 1.000000 0.000000 0.000000
vn 0.000000 0.000000 -1.000000
vn 0.000000 0.000000 -1.000000
vn 0.000000 0.000000 -1.000000
vn 0.000000 0.000000 -1.000000
vn 0.000000 1.000000 0.000000
vn 0.000000 1.000000 0.000000
vn 0.000000 1.000000 0.000000
vn 0.000000 1.000000 0.000000
vn 0.521498 -0.836259 -0.169444
vn 0.443612 -0.836259 -0.322303
vn 0.608931 -0.658385 -0.442416
vn 0.715844 -0.658383 -0.232590
vn 0.322305 -0.836257 -0.443615
vn 0.442416 -0.658383 -0.608934
vn 0.169446 -0.836257 -0.521500
vn 0.232592 -0.658383 -0.715844
vn 0.000000 -0.836259 -0.548335
vn 0.000000 -0.658386 -0.752680
vn -0.169445 -0.836258 -0.521498
vn -0.232592 -0.658385 -0.715843
vn -0.322306 -0.836258 -0.443613
vn -0.442418 -0.658383 -0.608933
vn -0.443616 -0.836257 -0.322302
vn -0.608934 -0.658383 -0.442414
vn -0.521498 -0.836259 -0.169446
vn -0.715842 -0.658386 -0.232592
vn -0.548334 -0.836259 0.000000
vn -0.752680 -0.658386 0.000000
vn -0.521499 -0.836257 0.169447
vn -0.715842 -0.658385 0.232592
vn -0.443617 -0.836256 0.322304
vn -0.608934 -0.658383 0.442415
vn -0.322305 -0.836258 0.443612
vn -0.442416 -0.658383 0.608933
vn -0.169445 -0.836259 0.521497
vn -0.232591 -0.658385 0.715842
vn 0.000000 -0.836259 0.548335
vn 0.000000 -0.658386 0.752680
vn 0.169445 -0.836258 0.521499
vn 0.232592 -0.658384 0.715844
vn 0.322305 -0.836258 0.443613
vn 0.442417 -0.658383 0.608933
vn 0.443617 -0.836257 0.322303
vn 0.608935 -0.658383 0.442414
vn 0.521498 -0.836259 0.169446
vn 0.715844 -0.658383 0.232592
vn 0.548337 -0.836258 0.000002
vn 0.752683 -0.658383 0.000003
vn 0.750178 -0.374391 -0.545037
vn 0.881888 -0.374391 -0.286540
vn 0.545034 -0.374393 -0.750178
vn 0.286542 -0.374394 -0.881886
vn 0.000000 -0.374395 -0.927269
vn -0.286542 -0.374394 -0.881886
vn -0.545036 -0.374394 -0.750177
vn -0.750177 -0.374395 -0.545035
vn -0.881886 -0.374395 -0.286542
vn -0.927270 -0.374394 -0.000000
vn -0.881885 -0.374395 0.286542
vn -0.750176 -0.374394 0.545036
vn -0.545035 -0.374393 0.750178
vn -0.286542 -0.374395 0.881886
vn -0.000000 -0.374395 0.927269
vn 0.286542 -0.374394 0.881886
vn 0.545035 -0.374395 0.750177
vn 0.750177 -0.374395 0.545034
vn 0.881886 -0.374394 0.286543
vn 0.927270 -0.374394 0.000003
vn -0.406422 0.864655 0.295284
vn -0.477778 0.864655 0.155240
vn -0.295288 0.864653 0.406424
vn -0.155241 0.864654 0.477781
vn -0.000000 0.864656 0.502365
vn 0.155242 0.864653 0.477782
vn 0.295290 0.864650 0.406429
vn 0.406423 0.864654 0.295286
vn 0.477779 0.864655 0.155239
vn 0.502369 0.864654 0.000000
vn 0.477779 0.864655 -0.155239
vn 0.406426 0.864653 -0.295285
vn 0.295288 0.864652 -0.406425
vn 0.155238 0.864655 -0.477780
vn 0.000000 0.864657 -0.502363
vn -0.155238 0.864656 -0.477778
vn -0.295288 0.864652 -0.406426
vn -0.406428 0.864651 -0.295288
vn -0.477782 0.864653 -0.155241
vn -0.502369 0.864654 0.000000
vn -0.000000 1.000000 0.000001
vn -0.000000 -1.000000 -0.000000
vn 0.000000 0.000000 1.000000
vn 0.000000 0.000000 1.000000
vn 0.000000 0.000000 1.000000
vn 0.000000 0.000000 1.000000
vn 0.000000 1.000000 0.000000
vn 0.000000 1.000000 0.000000
vn 0.000000 1.000000 0.000000
vn 0.000000 1.000000 0.000000
vn 0.000000 0.000000 -1.000000
vn 0.000000 0.000000 -1.000000
vn 0.000000 0.000000 -1.000000
vn 0.000000 0.000000 -1.000000
vn 0.000000 -1.000000 0.000000
vn 0.000000 -1.000000 0.000000
vn 0.000000 -1.000000 0.000000
vn 0.000000 -1.000000 0.000000
vn 1.000000 0.000000 0.000000
vn 1.000000 0.000000 0.000000
vn 1.000000 0.000000 0.000000
vn 1.000000 0.000000 0.000000
vn -1.000000 0.000000 0.000000
vn -1.000000 0.000000 0.000000
vn -1.000000 0.000000 0.000000
vn -1.000000 0.000000 0.000000
vn 0.000000 0.000000 1.000000
vn 0.000000 0.000000 1.000000
vn -1.000000 0.000000 0.000000
vn -1.000000 0.000000 0.000000
vn 0.000000 0.000000 -1.000000
vn 0.000000 0.000000 -1.000000
vn 1.000000 0.000000 0.000000
vn 1.000000 0.000000 0.000000
vn 1.000000 0.000000 0.000000
vn 1.000000 0.000000 0.000000
vn 0.000000 -1.000000 0.000000
vn 0.000000 -1.000000 0.000000
vn 0.000000 -1.000000 0.000000
vn 0.000000 -1.000000 0.000000
vn 0.000000 0.000000 -1.000000
vn 0.000000 0.000000 -1.000000
vn 0.000000 1.000000 0.000000
vn 0.000000 1.000000 0.000000
vn 0.000000 0.000000 1.000000
vn 0.000000 0.000000 1.000000
s off
g initialShadingGroup pCube4
f 3/1/1 4/2/2 2/3/3 1/4/4
f 3/5/5 1/6/6 6/7/7 5/8/8
f 1/9/9 2/10/10 7/11/11 6/12/12
f 2/13/13 4/14/14 8/15/15 7/16/16
f 5/17/17 8/18/18 4/19/19 3/20/20
f 5/21/21 6/22/22 7/23/23 8/24/24
s 1
f 9/32/25 10/25/26 30/28/27 29/33/28
f 10/25/26 11/26/29 31/27/30 30/28/27
f 11/26/29 12/30/31 32/31/32 31/27/30
f 12/30/31 13/34/33 33/35/34 32/31/32
f 13/34/33 14/38/35 34/39/36 33/35/34
f 14/38/35 15/42/37 35/43/38 34/39/36
f 15/42/37 16/46/39 36/47/40 35/43/38
f 16/46/39 17/50/41 37/51/42 36/47/40
f 17/50/41 18/54/43 38/55/44 37/51/42
f 18/54/43 19/58/45 39/59/46 38/55/44
f 19/58/45 20/62/47 40/63/48 39/59/46
f 20/62/47 21/64/49 41/65/50 40/63/48
f 21/64/49 22/60/51 42/61/52 41/65/50
f 22/60/51 23/56/53 43/57/54 42/61/52
f 23/56/53 24/52/55 44/53/56 43/57/54
f 24/52/55 25/48/57 45/49/58 44/53/56
f 25/48/57 26/44/59 46/45/60 45/49/58
f 26/44/59 27/40/61 47/41/62 46/45/60
f 27/40/61 28/36/63 48/37/64 47/41/62
f 28/36/63 9/32/25 29/33/28 48/37/64
f 29/66/28 30/67/27 50/68/65 49/69/66
f 30/67/27 31/70/30 51/71/67 50/68/65
f 31/87/30 32/88/32 52/89/68 51/90/67
f 32/88/32 33/91/34 53/92/69 52/89/68
f 33/91/34 34/95/36 54/96/70 53/92/69
f 34/95/36 35/98/38 55/99/71 54/96/70
f 35/98/38 36/101/40 56/102/72 55/99/71
f 36/105/40 37/106/42 57/107/73 56/108/72
f 37/106/42 38/109/44 58/110/74 57/107/73
f 38/109/44 39/113/46 59/114/75 58/110/74
f 39/113/46 40/116/48 60/117/76 59/114/75
f 40/116/48 41/119/50 61/120/77 60/117/76
f 41/123/50 42/124/52 62/125/78 61/126/77
f 42/124/52 43/127/54 63/128/79 62/125/78
f 43/127/54 44/131/56 64/132/80 63/128/79
f 44/131/56 45/134/58 65/135/81 64/132/80
f 45/84/58 46/81/60 66/82/82 65/85/81
f 46/81/60 47/78/62 67/79/83 66/82/82
f 47/78/62 48/74/64 68/75/84 67/79/83
f 48/74/64 29/66/28 49/69/66 68/75/84
f 49/69/66 50/68/65 70/72/85 69/73/86
f 50/68/65 51/71/67 71/76/87 70/72/85
f 51/90/67 52/89/68 72/93/88 71/94/87
f 52/89/68 53/92/69 73/97/89 72/93/88
f 53/92/69 54/96/70 74/100/90 73/97/89
f 54/96/70 55/99/71 75/103/91 74/100/90
f 55/99/71 56/102/72 76/104/92 75/103/91
f 56/108/72 57/107/73 77/111/93 76/112/92
f 57/107/73 58/110/74 78/115/94 77/111/93
f 58/110/74 59/114/75 79/118/95 78/115/94
f 59/114/75 60/117/76 80/121/96 79/118/95
f 60/117/76 61/120/77 81/122/97 80/121/96
f 61/126/77 62/125/78 82/129/98 81/130/97
f 62/125/78 63/128/79 83/133/99 82/129/98
f 63/128/79 64/132/80 84/136/100 83/133/99
f 64/132/80 65/135/81 85/137/101 84/136/100
f 65/85/81 66/82/82 86/83/102 85/86/101
f 66/82/82 67/79/83 87/80/103 86/83/102
f 67/79/83 68/75/84 88/77/104 87/80/103
f 68/75/84 49/69/66 69/73/86 88/77/104
f 69/142/86 70/138/85 89/140/105
f 70/138/85 71/139/87 89/140/105
f 71/139/87 72/141/88 89/140/105
f 72/141/88 73/143/89 89/140/105
f 73/143/89 74/145/90 89/140/105
f 74/145/90 75/147/91 89/140/105
f 75/147/91 76/149/92 89/140/105
f 76/149/92 77/151/93 89/140/105
f 77/151/93 78/153/94 89/140/105
f 78/153/94 79/155/95 89/140/105
f 79/155/95 80/157/96 89/140/105
f 80/157/96 81/158/97 89/140/105
f 81/158/97 82/156/98 89/140/105
f 82/156/98 83/154/99 89/140/105
f 83/154/99 84/152/100 89/140/105
f 84/152/100 85/150/101 89/140/105
f 85/150/101 86/148/102 89/140/105
f 86/148/102 87/146/103 89/140/105
f 87/146/103 88/144/104 89/140/105
f 88/144/104 69/142/86 89/140/105
f 10/25/26 9/32/25 90/29/106
f 11/26/29 10/25/26 90/29/106
f 12/30/31 11/26/29 90/29/106
f 13/34/33 12/30/31 90/29/106
f 14/38/35 13/34/33 90/29/106
f 15/42/37 14/38/35 90/29/106
f 16/46/39 15/42/37 90/29/106
f 17/50/41 16/46/39 90/29/106
f 18/54/43 17/50/41 90/29/106
f 19/58/45 18/54/43 90/29/106
f 20/62/47 19/58/45 90/29/106
f 21/64/49 20/62/47 90/29/106
f 22/60/51 21/64/49 90/29/106
f 23/56/53 22/60/51 90/29/106
f 24/52/55 23/56/53 90/29/106
f 25/48/57 24/52/55 90/29/106
f 26/44/59 25/48/57 90/29/106
f 27/40/61 26/44/59 90/29/106
f 28/36/63 27/40/61 90/29/106
f 9/32/25 28/36/63 90/29/106
s 2
f 91/159/107 92/160/108 99/161/109 100/162/110
s 3
f 93/167/111 94/168/112 96/169/113 95/170/114
s 4
f 101/173/115 102/174/116 98/175/117 97/176/118
s off
f 97/181/119 98/182/120 92/183/121 91/184/122
f 92/185/123 98/186/124 102/187/125 99/188/126
s 5
f 97/189/127 91/190/128 100/191/129 101/192/130
s 2
f 100/162/110 99/161/109 94/163/131 93/164/132
s 5
f 101/192/130 100/191/129 93/193/133 95/194/134
s 4
f 95/177/135 96/178/136 102/174/116 101/173/115
s off
f 104/195/137 103/196/138 105/197/139 106/198/140
f 99/199/141 102/200/142 103/201/143 104/202/144
s 4
f 102/174/116 96/178/136 105/179/145 103/180/146
s 3
f 96/169/113 94/168/112 106/171/147 105/172/148
s 2
f 94/163/131 99/161/109 104/165/149 106/166/150
