# This file uses centimeters as units for non-parametric coordinates.

mtllib SupermarketFloor.mtl
g default
v -7.336900 0.261146 7.002614
v 7.312171 0.261146 7.002614
v -7.336900 0.447833 7.002614
v 7.312171 0.447833 7.002614
v -7.336900 0.447833 -7.646457
v 7.312171 0.447833 -7.646457
v -7.336900 0.261146 -7.646457
v 7.312171 0.261146 -7.646457
v 7.312171 0.447833 -2.484076
v 7.312171 0.447833 1.840233
v 6.488741 0.447833 -7.646457
v 6.488741 0.447833 7.002614
v 6.488741 0.447833 1.840233
v 6.488741 0.447833 -2.484076
vt 0.923027 0.972051
vt 0.093468 0.972051
vt 0.093468 0.093086
vt 0.972433 0.093086
vt 0.972433 0.972051
vt 0.079791 0.972150
vt 0.079791 0.093184
vt 0.909349 0.093184
vt 0.565000 0.006444
vt 0.909349 0.662400
vt 0.909349 0.972150
vt 0.958757 0.093184
vt 0.565000 0.050898
vt 0.401363 0.050898
vt 0.958757 0.972150
vt 0.101755 0.965994
vt 0.101755 0.158862
vt 0.863518 0.158862
vt 0.908887 0.158862
vt 0.908887 0.965994
vt 0.099121 0.991282
vt 0.099121 0.112316
vt 0.978086 0.112316
vt 0.978086 0.991282
vt 0.917743 0.681468
vt 0.917743 0.965904
vt 0.110611 0.965904
vt 0.110611 0.158771
vt 0.917743 0.158771
vt 0.917743 0.443208
vt 0.926637 0.176431
vt 0.926637 0.983563
vt 0.119505 0.983563
vt 0.119505 0.176431
vt 0.909349 0.402935
vt 0.401363 0.006443
vt 0.958757 0.402935
vt 0.958757 0.662400
vn 0.000000 0.000000 1.000000
vn 0.000000 0.000000 1.000000
vn 0.000000 0.000000 1.000000
vn 0.000000 0.000000 1.000000
vn 0.000000 0.000000 1.000000
vn 0.000000 1.000000 0.000000
vn 0.000000 1.000000 0.000000
vn 0.000000 1.000000 0.000000
vn 0.000000 1.000000 0.000000
vn 0.000000 1.000000 0.000000
vn 0.000000 1.000000 0.000000
vn 0.000000 0.000000 -1.000000
vn 0.000000 0.000000 -1.000000
vn 0.000000 0.000000 -1.000000
vn 0.000000 0.000000 -1.000000
vn 0.000000 0.000000 -1.000000
vn 0.000000 -1.000000 0.000000
vn 0.000000 -1.000000 0.000000
vn 0.000000 -1.000000 0.000000
vn 0.000000 -1.000000 0.000000
vn 1.000000 0.000000 0.000000
vn 1.000000 0.000002 0.000000
vn 1.000000 -0.000000 0.000000
vn 1.000000 0.000002 0.000000
vn 1.000000 -0.000004 0.000000
vn 1.000000 0.000000 0.000000
vn -1.000000 0.000000 0.000000
vn -1.000000 0.000000 0.000000
vn -1.000000 0.000000 0.000000
vn -1.000000 0.000000 0.000000
vn 0.000000 1.000000 0.000000
vn 0.000000 1.000000 0.000000
vn 0.000000 1.000000 0.000000
vn 0.000000 1.000000 0.000000
s 1
g pCube1
usemtl initialShadingGroup
f 3/2/1 1/3/2 12/1/3
f 2/4/4 4/5/5 1/3/2
f 12/1/3 1/3/2 4/5/5
s 2
f 5/6/6 3/7/7 11/11/8
f 11/11/8 3/7/7 14/10/9
f 14/10/9 3/7/7 13/35/10
f 3/7/7 12/8/11 13/35/10
s 3
f 7/16/12 5/17/13 8/20/14
f 6/19/15 8/20/14 11/18/16
f 5/17/13 11/18/16 8/20/14
s 4
f 1/21/17 7/22/18 2/24/19
f 2/24/19 7/22/18 8/23/20
s 5
f 4/26/21 2/27/22 10/25/23
f 2/27/22 8/28/24 10/25/23
f 10/25/23 8/28/24 9/30/25
f 8/28/24 6/29/26 9/30/25
s 6
f 1/31/27 3/32/28 7/34/29
f 7/34/29 3/32/28 5/33/30
s 2
f 13/35/10 12/8/11 10/37/31
f 10/37/31 12/8/11 4/12/32
f 14/36/9 13/9/10 9/14/33
f 9/14/33 13/9/10 10/13/31
f 11/11/8 14/10/9 6/15/34
f 6/15/34 14/10/9 9/38/33
